<?xml version="1.0" encoding="utf-8"?>
<!-- Generator: Adobe Illustrator 23.0.6, SVG Export Plug-In . SVG Version: 6.00 Build 0)  -->
<svg version="1.1" id="Layer_1" xmlns="http://www.w3.org/2000/svg" xmlns:xlink="http://www.w3.org/1999/xlink" x="0px" y="0px"
	 viewBox="0 0 2000 500" style="enable-background:new 0 0 2000 500;" xml:space="preserve">
<style type="text/css">
	.st0{fill:#451514;}
	.st1{fill:#FFFFFF;}
</style>
<path class="st0" d="M911.96,476.98V33.61h142.78c36.32,0,67.11,5.54,92.37,16.59c25.26,11.07,45.72,26.41,61.37,46.03
	c15.66,19.63,27.02,43.11,34.13,70.45c7.09,27.35,10.65,57.3,10.65,89.86c0,32.15-3.55,61.68-10.65,88.61
	c-7.1,26.93-18.47,50.1-34.13,69.51c-15.66,19.41-36.12,34.66-61.37,45.71c-25.26,11.07-56.05,16.6-92.37,16.6H911.96z
	 M1116.11,256.55c0-32.97-5.22-58.55-15.66-76.71c-10.44-18.16-24.84-27.24-43.21-27.24h-8.14V358h8.14
	c18.37,0,32.77-9.08,43.21-27.24C1110.88,312.6,1116.11,287.86,1116.11,256.55z"/>
<path class="st0" d="M1437.98,476.98h-134.01V148.84h-78.28V33.61h290.57v115.22h-78.28V476.98z"/>
<path class="st1" d="M1513.12,358l142.78-143.4c7.1-7.51,13.36-15.55,18.79-24.11c5.42-8.55,8.14-16.8,8.14-24.74
	c0-7.09-1.88-13.04-5.63-17.85c-3.76-4.79-9.39-7.2-16.91-7.2c-8.77,0-15.97,4.29-21.61,12.84c-5.63,8.56-8.45,20.98-8.45,37.26
	l-127.12-11.27c2.51-26.3,8.14-49.25,16.91-68.88c8.77-19.62,20.25-35.79,34.44-48.53c14.19-12.73,30.47-22.33,48.84-28.81
	c18.37-6.47,38.2-9.71,59.49-9.71c22.54,0,42.99,3.13,61.37,9.39c18.37,6.26,34.23,15.45,47.6,27.55
	c13.36,12.11,23.69,27.04,31,44.78c7.3,17.75,10.96,38.1,10.96,61.06c0,14.62-1.98,28.18-5.95,40.71
	c-3.97,12.52-9.08,24.11-15.34,34.76c-6.26,10.65-13.26,20.46-20.98,29.43c-7.73,8.98-15.34,16.81-22.85,23.48l-70.14,65.13h129.63
	v117.1h-294.95V358z"/>
<path class="st0" d="M-0.79,191.51v142.73c0,0,142.73,0,142.73,142.73c142.73,0,142.73,0,142.73,0S284.68,191.51-0.79,191.51z"/>
<path class="st0" d="M-0.79,30.94v142.73c0,0,303.3,0,303.3,303.3c142.73,0,142.73,0,142.73,0S445.25,30.94-0.79,30.94z"/>
<path class="st1" d="M445.25,191.51v142.73c0,0,142.73,0,142.73,142.73c142.73,0,142.73,0,142.73,0S730.71,191.51,445.25,191.51z"/>
<path class="st1" d="M445.25,30.94v142.73c0,0,303.3,0,303.3,303.3c142.73,0,142.73,0,142.73,0S891.28,30.94,445.25,30.94z"/>
<path class="st1" d="M1867.47,418.48c6.12,0,11.66,0.67,16.62,2c4.97,1.34,9.21,3.38,12.73,6.13c3.52,2.75,6.23,6.25,8.14,10.49
	c1.91,4.24,2.87,9.27,2.87,15.08v22.82h-81.18v-22.82c0-5.81,0.96-10.83,2.87-15.08c1.91-4.24,4.64-7.74,8.2-10.49
	s7.84-4.79,12.84-6.13C1855.56,419.15,1861.2,418.48,1867.47,418.48z M1867.47,436.94c-8.18,0-14.35,1.4-18.52,4.19
	c-4.16,2.79-6.25,6.4-6.25,10.83v4.47h49.07v-4.47c0-4.43-2.08-8.04-6.25-10.83C1881.36,438.34,1875.34,436.94,1867.47,436.94z"/>
<path class="st1" d="M1877.9,367.8c4.66,0,8.96,0.57,12.9,1.72c3.94,1.15,7.32,2.77,10.15,4.87c2.83,2.1,5.05,4.7,6.65,7.8
	c1.61,3.09,2.41,6.59,2.41,10.49c0,3.9-0.8,7.38-2.41,10.44c-1.61,3.06-3.82,5.67-6.65,7.85c-2.83,2.18-6.21,3.84-10.15,4.99
	c-3.94,1.15-8.24,1.72-12.9,1.72c-4.66,0-8.98-0.57-12.95-1.72c-3.98-1.15-7.38-2.79-10.21-4.93c-2.83-2.14-5.05-4.76-6.65-7.85
	c-1.61-3.1-2.41-6.59-2.41-10.49c0-3.9,0.8-7.4,2.41-10.49c1.61-3.1,3.83-5.7,6.65-7.8c2.83-2.1,6.23-3.73,10.21-4.87
	C1868.92,368.38,1873.24,367.8,1877.9,367.8z M1877.79,385c-2.29,0-4.41,0.16-6.36,0.46c-1.95,0.31-3.67,0.77-5.16,1.38
	c-1.49,0.61-2.66,1.4-3.5,2.35c-0.84,0.96-1.26,2.12-1.26,3.5c0,1.3,0.42,2.43,1.26,3.38s2.01,1.74,3.5,2.35
	c1.49,0.61,3.21,1.07,5.16,1.38c1.95,0.31,4.07,0.46,6.36,0.46s4.41-0.15,6.36-0.46c1.95-0.31,3.67-0.76,5.16-1.38
	c1.49-0.61,2.66-1.4,3.5-2.35s1.26-2.08,1.26-3.38c0-1.38-0.42-2.54-1.26-3.5c-0.84-0.96-2.01-1.74-3.5-2.35
	c-1.49-0.61-3.21-1.07-5.16-1.38C1882.2,385.16,1880.08,385,1877.79,385z"/>
<path class="st1" d="M1907.83,305.78v18.23l-34.4,7.57v0.23l34.4,7.45v17.66l-59.97,13.3v-18.34l37.49-5.85v-0.23l-37.49-6.88
	v-15.36l37.49-7.11v-0.23l-37.49-5.85v-18.12L1907.83,305.78z"/>
<path class="st1" d="M1847.86,273.44h8.49v-0.23c-2.91-0.99-5.41-2.75-7.51-5.27c-2.1-2.52-3.15-5.65-3.15-9.4
	c0-3.44,0.71-6.19,2.12-8.26c1.42-2.06,3.31-3.67,5.68-4.82c2.37-1.15,5.08-1.91,8.14-2.29c3.06-0.38,6.23-0.57,9.51-0.57h36.69v18
	h-36.81c-2.52,0-4.74,0.37-6.65,1.09c-1.91,0.73-2.87,2.16-2.87,4.3c0,2.22,1.01,3.94,3.04,5.16c2.03,1.22,4.68,1.83,7.97,1.83
	h35.32v18h-59.97V273.44z"/>
<path class="st1" d="M1908.75,211.99c0.38,1.83,0.57,3.67,0.57,5.5c0,6.04-1.62,10.44-4.87,13.18c-3.25,2.75-8.12,4.13-14.62,4.13
	h-27.98v7.22h-13.99v-7.11h-14.45v-17.43h14.45v-10.32h13.99v10.32h23.93c2.92,0,5.05-0.46,6.39-1.38c1.34-0.92,2.02-2.37,2.02-4.36
	c0-1.61-0.31-2.94-0.92-4.01h14.1C1907.91,208.74,1908.36,210.15,1908.75,211.99z"/>
<path class="st1" d="M1877.9,159.82c4.66,0,8.96,0.57,12.9,1.72c3.94,1.15,7.32,2.77,10.15,4.87c2.83,2.1,5.05,4.7,6.65,7.8
	c1.61,3.09,2.41,6.59,2.41,10.49s-0.8,7.38-2.41,10.44c-1.61,3.06-3.82,5.67-6.65,7.85c-2.83,2.18-6.21,3.84-10.15,4.99
	c-3.94,1.15-8.24,1.72-12.9,1.72c-4.66,0-8.98-0.57-12.95-1.72c-3.98-1.15-7.38-2.79-10.21-4.93c-2.83-2.14-5.05-4.76-6.65-7.85
	c-1.61-3.1-2.41-6.59-2.41-10.49s0.8-7.4,2.41-10.49c1.61-3.1,3.83-5.7,6.65-7.8c2.83-2.1,6.23-3.73,10.21-4.87
	C1868.92,160.39,1873.24,159.82,1877.9,159.82z M1877.79,177.01c-2.29,0-4.41,0.16-6.36,0.46c-1.95,0.31-3.67,0.77-5.16,1.38
	c-1.49,0.61-2.66,1.4-3.5,2.35c-0.84,0.96-1.26,2.12-1.26,3.5c0,1.3,0.42,2.43,1.26,3.38c0.84,0.96,2.01,1.74,3.5,2.35
	c1.49,0.61,3.21,1.07,5.16,1.38c1.95,0.31,4.07,0.46,6.36,0.46s4.41-0.15,6.36-0.46c1.95-0.31,3.67-0.76,5.16-1.38
	s2.66-1.4,3.5-2.35c0.84-0.96,1.26-2.08,1.26-3.38c0-1.38-0.42-2.54-1.26-3.5c-0.84-0.96-2.01-1.74-3.5-2.35
	c-1.49-0.61-3.21-1.07-5.16-1.38C1882.2,177.17,1880.08,177.01,1877.79,177.01z"/>
<path class="st1" d="M1907.83,97.79v18.23l-34.4,7.57v0.23l34.4,7.45v17.66l-59.97,13.3v-18.34l37.49-5.85v-0.23l-37.49-6.88v-15.36
	l37.49-7.11v-0.23l-37.49-5.85V84.26L1907.83,97.79z"/>
<path class="st1" d="M1847.86,65.46h8.49v-0.23c-2.91-0.99-5.41-2.75-7.51-5.27c-2.1-2.52-3.15-5.65-3.15-9.4
	c0-3.44,0.71-6.19,2.12-8.26c1.42-2.06,3.31-3.67,5.68-4.82c2.37-1.15,5.08-1.91,8.14-2.29c3.06-0.38,6.23-0.57,9.51-0.57h36.69v18
	h-36.81c-2.52,0-4.74,0.37-6.65,1.09c-1.91,0.73-2.87,2.16-2.87,4.3c0,2.22,1.01,3.94,3.04,5.16c2.03,1.22,4.68,1.83,7.97,1.83
	h35.32v18h-59.97V65.46z"/>
<path class="st0" d="M1957.46,418.48c6.12,0,11.66,0.67,16.62,2c4.97,1.34,9.21,3.38,12.73,6.13c3.52,2.75,6.23,6.25,8.14,10.49
	c1.91,4.24,2.87,9.27,2.87,15.08v22.82h-81.18v-22.82c0-5.81,0.96-10.83,2.87-15.08c1.91-4.24,4.64-7.74,8.2-10.49
	s7.84-4.79,12.84-6.13C1945.56,419.15,1951.19,418.48,1957.46,418.48z M1957.46,436.94c-8.18,0-14.35,1.4-18.52,4.19
	c-4.16,2.79-6.25,6.4-6.25,10.83v4.47h49.07v-4.47c0-4.43-2.08-8.04-6.25-10.83C1971.35,438.34,1965.33,436.94,1957.46,436.94z"/>
<path class="st0" d="M1997.82,383.05h-8.49v0.23c2.91,1,5.41,2.75,7.51,5.27c2.1,2.52,3.15,5.66,3.15,9.4
	c0,3.44-0.71,6.19-2.12,8.26c-1.41,2.06-3.31,3.67-5.68,4.81c-2.37,1.15-5.08,1.91-8.14,2.29c-3.06,0.39-6.23,0.57-9.52,0.57h-36.69
	v-18h36.69c1.3,0,2.52-0.08,3.67-0.23c1.15-0.15,2.14-0.42,2.98-0.8c0.84-0.38,1.53-0.94,2.06-1.66s0.8-1.62,0.8-2.69
	c0-2.22-1.01-3.93-3.04-5.16c-2.03-1.22-4.68-1.83-7.97-1.83h-35.2v-18h59.97V383.05z"/>
<path class="st0" d="M1998.74,333.41c0.38,1.83,0.57,3.67,0.57,5.5c0,6.04-1.62,10.44-4.87,13.18c-3.25,2.75-8.12,4.13-14.62,4.13
	h-27.98v7.22h-13.99v-7.11h-14.45v-17.43h14.45v-10.32h13.99v10.32h23.93c2.92,0,5.05-0.46,6.39-1.38c1.34-0.92,2.02-2.37,2.02-4.36
	c0-1.61-0.31-2.94-0.92-4.01h14.1C1997.9,330.16,1998.36,331.57,1998.74,333.41z"/>
<path class="st0" d="M1997.94,298.09c1.15,2.52,1.72,5.43,1.72,8.72c0,3.82-0.78,7.19-2.35,10.09c-1.57,2.91-3.77,5.35-6.59,7.34
	c-2.83,1.99-6.19,3.5-10.09,4.53c-3.9,1.03-8.18,1.55-12.84,1.55c-4.66,0-8.92-0.53-12.78-1.61c-3.86-1.07-7.21-2.6-10.03-4.59
	c-2.83-1.98-5.03-4.45-6.59-7.39c-1.56-2.94-2.35-6.33-2.35-10.15c0-3.36,0.61-6.27,1.83-8.72c1.23-2.44,2.6-4.35,4.13-5.73
	l13.99,7.22c-1.07,0.69-1.91,1.53-2.52,2.52c-0.61,0.99-0.92,2.11-0.92,3.33c0,2.22,1.34,4.07,4.01,5.56
	c2.68,1.49,6.42,2.24,11.23,2.24c4.82,0,8.54-0.73,11.18-2.18s3.96-3.44,3.96-5.96c0-1.3-0.32-2.42-0.97-3.38
	c-0.65-0.95-1.51-1.74-2.58-2.35l13.87-7.22C1995.22,293.51,1996.79,295.57,1997.94,298.09z"/>
<path class="st0" d="M1997.82,273.21v18h-86.68v-18h34.74v-0.34c-2.68-0.92-5.05-2.58-7.11-4.99c-2.06-2.41-3.1-5.45-3.1-9.11
	c0-3.44,0.71-6.21,2.12-8.31c1.42-2.1,3.31-3.73,5.68-4.87c2.37-1.15,5.08-1.91,8.14-2.29c3.06-0.38,6.23-0.57,9.51-0.57h36.69v18
	h-36.81c-2.52,0-4.74,0.37-6.65,1.09c-1.91,0.73-2.87,2.2-2.87,4.41c0,2.22,1.01,3.94,3.04,5.16s4.68,1.83,7.97,1.83H1997.82z"/>
<path class="st0" d="M1998.74,211.41c0.38,1.83,0.57,3.67,0.57,5.5c0,6.04-1.62,10.44-4.87,13.18c-3.25,2.75-8.12,4.13-14.62,4.13
	h-27.98v7.22h-13.99v-7.11h-14.45v-17.43h14.45V206.6h13.99v10.32h23.93c2.92,0,5.05-0.46,6.39-1.38c1.34-0.92,2.02-2.37,2.02-4.36
	c0-1.61-0.31-2.94-0.92-4.01h14.1C1997.9,208.17,1998.36,209.58,1998.74,211.41z"/>
<path class="st0" d="M1967.89,158.44c4.66,0,8.96,0.57,12.9,1.72c3.94,1.15,7.32,2.77,10.15,4.87c2.83,2.1,5.05,4.7,6.65,7.8
	c1.61,3.09,2.41,6.59,2.41,10.49c0,3.9-0.8,7.38-2.41,10.44c-1.61,3.06-3.82,5.67-6.65,7.85c-2.83,2.18-6.21,3.84-10.15,4.99
	c-3.94,1.15-8.24,1.72-12.9,1.72c-4.66,0-8.98-0.57-12.95-1.72c-3.98-1.15-7.38-2.79-10.21-4.93c-2.83-2.14-5.05-4.76-6.65-7.85
	c-1.61-3.1-2.41-6.59-2.41-10.49c0-3.9,0.8-7.4,2.41-10.49c1.61-3.1,3.83-5.7,6.65-7.8c2.83-2.1,6.23-3.73,10.21-4.87
	C1958.92,159.02,1963.23,158.44,1967.89,158.44z M1967.78,175.64c-2.29,0-4.41,0.16-6.36,0.46c-1.95,0.31-3.67,0.77-5.16,1.38
	c-1.49,0.61-2.66,1.4-3.5,2.35c-0.84,0.96-1.26,2.12-1.26,3.5c0,1.3,0.42,2.43,1.26,3.38c0.84,0.96,2.01,1.74,3.5,2.35
	c1.49,0.61,3.21,1.07,5.16,1.38c1.95,0.31,4.07,0.46,6.36,0.46s4.41-0.15,6.36-0.46c1.95-0.31,3.67-0.76,5.16-1.38
	s2.66-1.4,3.5-2.35c0.84-0.96,1.26-2.08,1.26-3.38c0-1.38-0.42-2.54-1.26-3.5c-0.84-0.96-2.01-1.74-3.5-2.35
	c-1.49-0.61-3.21-1.07-5.16-1.38C1972.2,175.8,1970.07,175.64,1967.78,175.64z"/>
<path class="st0" d="M1997.82,95.61v18.23l-34.4,7.57v0.23l34.4,7.45v17.66l-59.97,13.3v-18.34l37.49-5.85v-0.23l-37.49-6.88v-15.36
	l37.49-7.11v-0.23l-37.49-5.85V82.08L1997.82,95.61z"/>
<path class="st0" d="M1937.85,62.48h8.49v-0.23c-2.91-0.99-5.41-2.75-7.51-5.27c-2.1-2.52-3.15-5.65-3.15-9.4
	c0-3.44,0.71-6.19,2.12-8.26c1.42-2.06,3.31-3.67,5.68-4.82c2.37-1.15,5.08-1.91,8.14-2.29c3.06-0.38,6.23-0.57,9.51-0.57h36.69v18
	h-36.81c-2.52,0-4.74,0.37-6.65,1.09c-1.91,0.73-2.87,2.16-2.87,4.3c0,2.22,1.01,3.94,3.04,5.16s4.68,1.83,7.97,1.83h35.32v18
	h-59.97V62.48z"/>
</svg>
