<?xml version="1.0" encoding="utf-8"?>
<!-- Generator: Adobe Illustrator 23.0.6, SVG Export Plug-In . SVG Version: 6.00 Build 0)  -->
<svg version="1.1" id="Layer_1" xmlns="http://www.w3.org/2000/svg" xmlns:xlink="http://www.w3.org/1999/xlink" x="0px" y="0px"
	 viewBox="0 0 1140 185" style="enable-background:new 0 0 1140 185;" xml:space="preserve">
<style type="text/css">
	.st0{fill:#FFFFFF;}
</style>
<g>
	<path class="st0" d="M103.77,62.79c0,9.73-1.81,18.13-5.42,25.2c-3.61,7.06-8.37,12.87-14.29,17.43
		c-5.91,4.55-12.59,7.9-20.02,10.05c-7.43,2.15-14.97,3.22-22.61,3.22H0V7.54h40.19c7.85,0,15.59,0.92,23.23,2.75
		c7.64,1.83,14.44,4.87,20.41,9.1s10.78,9.92,14.44,17.03C101.93,43.54,103.77,52.33,103.77,62.79z M75.82,62.79
		c0-6.28-1.02-11.48-3.06-15.62c-2.04-4.13-4.76-7.43-8.16-9.89c-3.4-2.46-7.27-4.21-11.62-5.26c-4.34-1.05-8.82-1.57-13.42-1.57
		H26.22v64.99h12.72c4.81,0,9.44-0.55,13.89-1.65c4.45-1.1,8.37-2.9,11.77-5.42c3.4-2.51,6.12-5.86,8.16-10.05
		C74.8,74.15,75.82,68.97,75.82,62.79z"/>
	<path class="st0" d="M160.59,118.68v-10.83h-0.31c-0.94,1.78-2.17,3.45-3.69,5.02c-1.52,1.57-3.3,2.93-5.34,4.08
		c-2.04,1.15-4.29,2.09-6.75,2.83c-2.46,0.73-5.05,1.1-7.77,1.1c-5.23,0-9.65-0.94-13.27-2.83c-3.61-1.88-6.54-4.32-8.79-7.3
		c-2.25-2.98-3.87-6.38-4.87-10.2c-1-3.82-1.49-7.72-1.49-11.7V40.5h25.9v42.39c0,2.2,0.16,4.29,0.47,6.28
		c0.31,1.99,0.92,3.77,1.81,5.34c0.89,1.57,2.06,2.8,3.53,3.69c1.46,0.89,3.4,1.33,5.81,1.33c4.5,0,7.93-1.67,10.28-5.02
		c2.35-3.35,3.53-7.27,3.53-11.77V40.5h25.75v78.18H160.59z"/>
	<path class="st0" d="M225.58,59.65V89.6c0,3.68,0.71,6.43,2.12,8.27c1.41,1.84,3.95,2.76,7.61,2.76c1.26,0,2.59-0.1,4-0.31
		c1.41-0.21,2.59-0.52,3.53-0.94l0.31,18.84c-1.78,0.63-4.03,1.18-6.75,1.65c-2.72,0.47-5.44,0.71-8.16,0.71
		c-5.23,0-9.63-0.66-13.19-1.97c-3.56-1.31-6.41-3.2-8.56-5.67c-2.15-2.47-3.69-5.4-4.63-8.81c-0.94-3.41-1.41-7.21-1.41-11.41
		V59.65h-12.56V40.5h12.4V19.94h25.27V40.5h18.37v19.15H225.58z"/>
	<path class="st0" d="M302.19,65.78c-1.47-1.88-3.45-3.4-5.97-4.55c-2.51-1.15-5.08-1.73-7.69-1.73c-2.72,0-5.18,0.55-7.38,1.65
		c-2.2,1.1-4.08,2.57-5.65,4.4c-1.57,1.83-2.8,3.95-3.69,6.36c-0.89,2.41-1.33,4.97-1.33,7.69c0,2.72,0.42,5.29,1.26,7.69
		c0.84,2.41,2.06,4.53,3.69,6.36c1.62,1.83,3.56,3.27,5.81,4.32c2.25,1.05,4.79,1.57,7.61,1.57c2.61,0,5.2-0.5,7.77-1.49
		c2.56-0.99,4.63-2.43,6.2-4.32l14.29,17.42c-3.24,3.14-7.43,5.6-12.56,7.38c-5.13,1.78-10.57,2.67-16.33,2.67
		c-6.18,0-11.94-0.94-17.29-2.83c-5.35-1.88-10-4.63-13.95-8.24c-3.95-3.61-7.05-7.98-9.32-13.11c-2.26-5.13-3.39-10.94-3.39-17.43
		c0-6.38,1.13-12.14,3.39-17.27c2.26-5.13,5.37-9.5,9.32-13.11c3.95-3.61,8.6-6.38,13.95-8.32c5.35-1.94,11.07-2.9,17.14-2.9
		c2.83,0,5.62,0.26,8.4,0.78c2.77,0.52,5.44,1.23,8.01,2.12c2.56,0.89,4.92,1.99,7.06,3.3c2.14,1.31,4,2.75,5.57,4.32L302.19,65.78z
		"/>
	<path class="st0" d="M370.79,118.68V76.29c0-2.2-0.16-4.29-0.47-6.28c-0.31-1.99-0.92-3.74-1.81-5.26
		c-0.89-1.52-2.07-2.72-3.53-3.61c-1.47-0.89-3.35-1.33-5.65-1.33c-4.5,0-7.95,1.6-10.36,4.79c-2.41,3.19-3.61,7.14-3.61,11.85
		v42.23h-25.75V0h25.75v50.39h0.31c1.78-3.14,4.6-5.94,8.48-8.4c3.87-2.46,8.53-3.69,13.97-3.69c5.34,0,9.81,0.94,13.42,2.83
		c3.61,1.88,6.54,4.32,8.79,7.3c2.25,2.98,3.87,6.41,4.87,10.28c0.99,3.87,1.49,7.75,1.49,11.62v48.35H370.79z"/>
	<path class="st0" d="M436.25,59.65V89.6c0,3.68,0.71,6.43,2.12,8.27c1.41,1.84,3.95,2.76,7.61,2.76c1.26,0,2.59-0.1,4-0.31
		c1.41-0.21,2.59-0.52,3.53-0.94l0.31,18.84c-1.78,0.63-4.03,1.18-6.75,1.65c-2.72,0.47-5.44,0.71-8.16,0.71
		c-5.23,0-9.63-0.66-13.19-1.97c-3.56-1.31-6.41-3.2-8.56-5.67c-2.15-2.47-3.69-5.4-4.63-8.81c-0.94-3.41-1.41-7.21-1.41-11.41
		V59.65h-12.56V40.5h12.4V19.94h25.27V40.5h18.37v19.15H436.25z"/>
	<path class="st0" d="M541.74,79.28c0,6.38-1.15,12.17-3.45,17.35c-2.3,5.18-5.44,9.58-9.42,13.19c-3.98,3.61-8.58,6.41-13.81,8.4
		c-5.23,1.99-10.83,2.98-16.8,2.98c-5.86,0-11.44-1-16.72-2.98c-5.29-1.99-9.89-4.79-13.81-8.4c-3.92-3.61-7.04-8.01-9.34-13.19
		c-2.3-5.18-3.45-10.96-3.45-17.35c0-6.38,1.15-12.14,3.45-17.27c2.3-5.13,5.42-9.47,9.34-13.03c3.92-3.56,8.53-6.28,13.81-8.16
		c5.28-1.88,10.86-2.83,16.72-2.83c5.97,0,11.56,0.94,16.8,2.83c5.23,1.88,9.84,4.61,13.81,8.16c3.98,3.56,7.12,7.9,9.42,13.03
		C540.59,67.14,541.74,72.89,541.74,79.28z M516.94,79.28c0-2.51-0.42-4.97-1.26-7.38c-0.84-2.41-2.04-4.53-3.61-6.36
		c-1.57-1.83-3.51-3.32-5.81-4.47c-2.3-1.15-4.97-1.73-8.01-1.73c-3.04,0-5.71,0.58-8.01,1.73c-2.3,1.15-4.21,2.64-5.73,4.47
		c-1.52,1.83-2.67,3.95-3.45,6.36c-0.78,2.41-1.18,4.87-1.18,7.38c0,2.51,0.39,4.97,1.18,7.38c0.78,2.41,1.96,4.58,3.53,6.51
		c1.57,1.94,3.51,3.48,5.81,4.63c2.3,1.15,4.97,1.73,8.01,1.73c3.03,0,5.7-0.57,8.01-1.73c2.3-1.15,4.24-2.69,5.81-4.63
		c1.57-1.94,2.75-4.11,3.53-6.51C516.55,84.25,516.94,81.79,516.94,79.28z"/>
	<path class="st0" d="M646.61,118.68h-25.9l-15.38-48.66h-0.31l-15.07,48.66h-25.9l-27-78.18h27.79l13.5,49.45h0.47l13.97-49.45
		h25.9l14.44,49.45h0.31l13.66-49.45h26.69L646.61,118.68z"/>
	<path class="st0" d="M727.29,118.68v-42.7c0-2.2-0.18-4.29-0.55-6.28c-0.37-1.99-0.97-3.74-1.81-5.26
		c-0.84-1.52-2.02-2.72-3.53-3.61c-1.52-0.89-3.43-1.33-5.73-1.33c-2.3,0-4.32,0.45-6.04,1.33c-1.73,0.89-3.17,2.12-4.32,3.69
		c-1.15,1.57-2.02,3.38-2.59,5.42c-0.58,2.04-0.86,4.16-0.86,6.36v42.39h-25.9V40.5h24.96v10.83h0.31c0.94-1.67,2.17-3.32,3.69-4.95
		c1.52-1.62,3.3-3.01,5.34-4.16c2.04-1.15,4.26-2.09,6.67-2.83c2.41-0.73,4.97-1.1,7.69-1.1c5.23,0,9.68,0.94,13.34,2.83
		c3.66,1.88,6.62,4.32,8.87,7.3c2.25,2.98,3.87,6.41,4.87,10.28c0.99,3.87,1.49,7.75,1.49,11.62v48.35H727.29z"/>
	<path class="st0" d="M913.48,118.68h-26.53l-21.98-75.2h-0.47l-21.98,75.2h-26.69L784.28,7.54h28.88l17.58,73.94h0.47L851,7.54
		h27.94l19.94,73.94h0.47l17.9-73.94h27.94L913.48,118.68z"/>
	<path class="st0" d="M1013,80.53c0,1.05,0,2.09,0,3.14c0,1.05-0.05,2.04-0.16,2.98h-56.67c0.21,2.2,0.86,4.19,1.96,5.96
		c1.1,1.78,2.51,3.32,4.24,4.63c1.73,1.31,3.66,2.33,5.81,3.06c2.14,0.73,4.37,1.1,6.67,1.1c4.08,0,7.53-0.76,10.36-2.28
		c2.83-1.52,5.13-3.48,6.91-5.89l17.9,11.3c-3.67,5.34-8.5,9.45-14.52,12.32c-6.02,2.88-13.01,4.32-20.96,4.32
		c-5.86,0-11.41-0.92-16.64-2.75c-5.23-1.83-9.81-4.5-13.74-8.01c-3.92-3.51-7.01-7.82-9.26-12.95c-2.25-5.13-3.38-10.99-3.38-17.58
		c0-6.38,1.1-12.17,3.3-17.35c2.2-5.18,5.18-9.58,8.95-13.19c3.77-3.61,8.21-6.41,13.34-8.4c5.13-1.99,10.68-2.98,16.64-2.98
		c5.75,0,11.04,0.97,15.86,2.9c4.81,1.94,8.95,4.74,12.4,8.4c3.45,3.66,6.15,8.11,8.08,13.34C1012.04,67.87,1013,73.84,1013,80.53z
		 M989.3,70.64c0-4.08-1.28-7.59-3.85-10.52c-2.57-2.93-6.41-4.4-11.54-4.4c-2.51,0-4.82,0.39-6.91,1.18
		c-2.09,0.78-3.92,1.86-5.49,3.22c-1.57,1.36-2.83,2.96-3.77,4.79c-0.94,1.83-1.47,3.74-1.57,5.73H989.3z"/>
	<path class="st0" d="M1067.16,63.58c-2.1-1.99-4.55-3.66-7.38-5.02c-2.83-1.36-5.81-2.04-8.95-2.04c-2.41,0-4.63,0.47-6.67,1.41
		c-2.04,0.94-3.06,2.57-3.06,4.87c0,2.2,1.12,3.77,3.38,4.71c2.25,0.94,5.89,1.99,10.91,3.14c2.93,0.63,5.89,1.52,8.87,2.67
		c2.98,1.15,5.68,2.67,8.08,4.55c2.41,1.88,4.34,4.19,5.81,6.91c1.47,2.72,2.2,5.96,2.2,9.73c0,4.92-1,9.08-2.98,12.48
		c-1.99,3.4-4.58,6.15-7.77,8.24c-3.19,2.09-6.78,3.61-10.75,4.55c-3.98,0.94-7.95,1.41-11.93,1.41c-6.38,0-12.64-1.02-18.76-3.06
		c-6.12-2.04-11.22-5.05-15.31-9.03l14.44-15.23c2.3,2.51,5.13,4.61,8.48,6.28c3.35,1.68,6.91,2.51,10.68,2.51
		c2.09,0,4.16-0.5,6.2-1.49c2.04-0.99,3.06-2.75,3.06-5.26c0-2.41-1.26-4.18-3.77-5.34c-2.51-1.15-6.44-2.35-11.77-3.61
		c-2.72-0.63-5.44-1.47-8.16-2.51c-2.72-1.05-5.16-2.46-7.3-4.24c-2.15-1.78-3.9-3.98-5.26-6.59c-1.36-2.61-2.04-5.75-2.04-9.42
		c0-4.71,0.99-8.71,2.98-12.01c1.99-3.3,4.55-5.99,7.69-8.08c3.14-2.09,6.62-3.63,10.44-4.63c3.82-0.99,7.61-1.49,11.38-1.49
		c5.86,0,11.59,0.92,17.19,2.75c5.6,1.83,10.33,4.58,14.21,8.24L1067.16,63.58z"/>
	<path class="st0" d="M1121.63,59.65V89.6c0,3.68,0.71,6.43,2.12,8.27c1.41,1.84,3.95,2.76,7.61,2.76c1.26,0,2.59-0.1,4-0.31
		c1.41-0.21,2.59-0.52,3.53-0.94l0.31,18.84c-1.78,0.63-4.03,1.18-6.75,1.65c-2.72,0.47-5.44,0.71-8.16,0.71
		c-5.23,0-9.63-0.66-13.19-1.97c-3.56-1.31-6.41-3.2-8.56-5.67c-2.15-2.47-3.69-5.4-4.63-8.81c-0.94-3.41-1.41-7.21-1.41-11.41
		V59.65h-12.56V40.5h12.4V19.94h25.27V40.5H1140v19.15H1121.63z"/>
</g>
<g>
	<path class="st0" d="M35.09,176.23h0.14v-42.15h5.03v49.49h-6.29L5.17,141H5.03v42.57H0v-49.49h6.29L35.09,176.23z"/>
	<path class="st0" d="M61.93,179.09h26.49v4.47H56.9v-49.49h30.69v4.47H61.93v16.99h23.98v4.47H61.93V179.09z"/>
	<path class="st0" d="M106.81,183.57h-5.03v-49.49h5.03V183.57z"/>
	<path class="st0" d="M160.98,143.03c-1.72-1.82-3.77-3.23-6.15-4.23c-2.38-1-5.1-1.5-8.18-1.5c-3.17,0-6.02,0.58-8.56,1.75
		c-2.54,1.16-4.7,2.73-6.47,4.71c-1.77,1.98-3.13,4.27-4.09,6.87c-0.96,2.61-1.43,5.35-1.43,8.24c0,2.89,0.48,5.63,1.43,8.24
		c0.95,2.61,2.32,4.89,4.09,6.84c1.77,1.95,3.93,3.51,6.47,4.68c2.54,1.16,5.39,1.74,8.56,1.74c2.8,0,5.36-0.3,7.69-0.91
		c2.33-0.6,4.22-1.37,5.66-2.31v-15.03h-11.53v-4.47h16.57v22.36c-2.7,1.64-5.62,2.85-8.74,3.64c-3.12,0.79-6.36,1.19-9.72,1.19
		c-3.73,0-7.18-0.65-10.35-1.96c-3.17-1.3-5.9-3.11-8.18-5.42c-2.28-2.31-4.07-5.04-5.35-8.21c-1.28-3.17-1.92-6.64-1.92-10.42
		c0-3.78,0.65-7.25,1.96-10.42c1.3-3.17,3.11-5.91,5.42-8.21c2.31-2.31,5.03-4.11,8.18-5.42c3.15-1.3,6.56-1.96,10.24-1.96
		c3.96,0,7.41,0.59,10.35,1.78s5.45,2.83,7.55,4.93L160.98,143.03z"/>
	<path class="st0" d="M181.39,134.08h5.03v21.46h26.98v-21.46h5.03v49.49h-5.03v-23.42h-26.98v23.42h-5.03V134.08z"/>
	<path class="st0" d="M235.07,134.08h14.75c1.86,0,3.75,0.2,5.66,0.59c1.91,0.4,3.62,1.07,5.14,2.03c1.51,0.96,2.75,2.25,3.7,3.88
		c0.95,1.63,1.43,3.68,1.43,6.15c0,2.61-0.8,4.88-2.39,6.82c-1.59,1.93-3.72,3.2-6.39,3.81v0.14c3.21,0.37,5.87,1.62,7.99,3.74
		c2.12,2.12,3.17,5,3.17,8.63c0,2.05-0.43,3.93-1.29,5.63c-0.86,1.7-2.08,3.15-3.66,4.33c-1.58,1.19-3.51,2.11-5.79,2.76
		c-2.28,0.65-4.84,0.98-7.67,0.98h-14.65V134.08z M240.11,155.75h10.14c1.21,0,2.43-0.14,3.67-0.42c1.23-0.28,2.36-0.76,3.39-1.43
		c1.02-0.68,1.85-1.57,2.48-2.69c0.63-1.12,0.94-2.49,0.94-4.12c0-1.58-0.31-2.92-0.94-4.02c-0.63-1.09-1.48-1.99-2.55-2.69
		c-1.07-0.7-2.33-1.2-3.77-1.5c-1.44-0.3-2.98-0.45-4.61-0.45h-8.74V155.75z M240.11,179.23h9.37c1.82,0,3.55-0.17,5.21-0.52
		c1.65-0.35,3.1-0.91,4.33-1.68c1.23-0.77,2.22-1.77,2.97-3.01c0.74-1.23,1.12-2.71,1.12-4.44c0-3.26-1.11-5.7-3.32-7.31
		c-2.21-1.61-5.35-2.41-9.4-2.41h-10.28V179.23z"/>
	<path class="st0" d="M331.95,158.82c0,3.77-0.65,7.25-1.96,10.42c-1.31,3.17-3.11,5.91-5.42,8.21c-2.31,2.31-5.03,4.11-8.18,5.42
		c-3.15,1.3-6.56,1.96-10.24,1.96c-3.68,0-7.1-0.65-10.24-1.96c-3.15-1.3-5.87-3.11-8.18-5.42c-2.31-2.31-4.11-5.04-5.42-8.21
		c-1.3-3.17-1.96-6.64-1.96-10.42c0-3.78,0.65-7.25,1.96-10.42c1.3-3.17,3.11-5.91,5.42-8.21s5.03-4.11,8.18-5.42
		c3.15-1.3,6.56-1.96,10.24-1.96c3.68,0,7.09,0.65,10.24,1.96c3.15,1.3,5.87,3.11,8.18,5.42c2.31,2.31,4.11,5.04,5.42,8.21
		C331.3,151.58,331.95,155.05,331.95,158.82z M326.64,158.86c0-2.88-0.47-5.63-1.4-8.24c-0.93-2.6-2.28-4.9-4.05-6.87
		c-1.77-1.98-3.93-3.55-6.47-4.71c-2.54-1.16-5.39-1.75-8.56-1.75c-3.17,0-6.02,0.58-8.56,1.75c-2.54,1.16-4.7,2.73-6.47,4.71
		c-1.77,1.98-3.12,4.27-4.05,6.87c-0.93,2.61-1.4,5.35-1.4,8.24c0,2.89,0.47,5.63,1.4,8.24c0.93,2.61,2.28,4.89,4.05,6.84
		c1.77,1.95,3.93,3.51,6.47,4.68c2.54,1.16,5.39,1.74,8.56,1.74c3.17,0,6.02-0.58,8.56-1.74c2.54-1.16,4.69-2.72,6.47-4.68
		c1.77-1.95,3.12-4.23,4.05-6.84C326.18,164.49,326.64,161.74,326.64,158.86z"/>
	<path class="st0" d="M350.97,183.57h-5.03v-49.49h14.54c2.42,0,4.67,0.23,6.75,0.7c2.07,0.47,3.87,1.22,5.38,2.27
		c1.51,1.05,2.69,2.41,3.53,4.09s1.26,3.73,1.26,6.15c0,1.82-0.33,3.47-0.98,4.96c-0.65,1.49-1.54,2.78-2.66,3.88
		c-1.12,1.1-2.45,1.97-3.98,2.62c-1.54,0.65-3.22,1.07-5.03,1.26l14.47,23.56h-6.15l-13.7-23.14h-8.39V183.57z M350.97,156.1h8.74
		c4.05,0,7.18-0.73,9.37-2.2c2.19-1.47,3.29-3.67,3.29-6.61c0-1.63-0.3-3.01-0.91-4.12c-0.61-1.12-1.44-2.03-2.52-2.73
		c-1.07-0.7-2.38-1.21-3.91-1.54c-1.54-0.33-3.24-0.49-5.1-0.49h-8.95V156.1z"/>
	<path class="st0" d="M391.3,134.08h5.03v21.46h26.98v-21.46h5.03v49.49h-5.03v-23.42h-26.98v23.42h-5.03V134.08z"/>
	<path class="st0" d="M493.91,158.82c0,3.77-0.65,7.25-1.96,10.42c-1.31,3.17-3.11,5.91-5.42,8.21c-2.31,2.31-5.03,4.11-8.18,5.42
		c-3.15,1.3-6.56,1.96-10.24,1.96c-3.68,0-7.1-0.65-10.24-1.96c-3.15-1.3-5.87-3.11-8.18-5.42c-2.31-2.31-4.11-5.04-5.42-8.21
		c-1.3-3.17-1.96-6.64-1.96-10.42c0-3.78,0.65-7.25,1.96-10.42c1.3-3.17,3.11-5.91,5.42-8.21s5.03-4.11,8.18-5.42
		c3.15-1.3,6.56-1.96,10.24-1.96c3.68,0,7.09,0.65,10.24,1.96c3.15,1.3,5.87,3.11,8.18,5.42c2.31,2.31,4.11,5.04,5.42,8.21
		C493.26,151.58,493.91,155.05,493.91,158.82z M488.6,158.86c0-2.88-0.47-5.63-1.4-8.24c-0.93-2.6-2.28-4.9-4.05-6.87
		c-1.77-1.98-3.93-3.55-6.47-4.71c-2.54-1.16-5.39-1.75-8.56-1.75c-3.17,0-6.02,0.58-8.56,1.75c-2.54,1.16-4.7,2.73-6.47,4.71
		c-1.77,1.98-3.12,4.27-4.05,6.87c-0.93,2.61-1.4,5.35-1.4,8.24c0,2.89,0.47,5.63,1.4,8.24c0.93,2.61,2.28,4.89,4.05,6.84
		c1.77,1.95,3.93,3.51,6.47,4.68c2.54,1.16,5.39,1.74,8.56,1.74c3.17,0,6.02-0.58,8.56-1.74c2.54-1.16,4.69-2.72,6.47-4.68
		c1.77-1.95,3.12-4.23,4.05-6.84C488.13,164.49,488.6,161.74,488.6,158.86z"/>
	<path class="st0" d="M556.82,158.82c0,3.77-0.65,7.25-1.96,10.42c-1.31,3.17-3.11,5.91-5.42,8.21c-2.31,2.31-5.03,4.11-8.18,5.42
		c-3.15,1.3-6.56,1.96-10.24,1.96c-3.68,0-7.1-0.65-10.24-1.96c-3.15-1.3-5.87-3.11-8.18-5.42c-2.31-2.31-4.11-5.04-5.42-8.21
		c-1.3-3.17-1.96-6.64-1.96-10.42c0-3.78,0.65-7.25,1.96-10.42c1.3-3.17,3.11-5.91,5.42-8.21c2.31-2.31,5.03-4.11,8.18-5.42
		c3.15-1.3,6.56-1.96,10.24-1.96c3.68,0,7.09,0.65,10.24,1.96c3.15,1.3,5.87,3.11,8.18,5.42c2.31,2.31,4.11,5.04,5.42,8.21
		C556.17,151.58,556.82,155.05,556.82,158.82z M551.51,158.86c0-2.88-0.47-5.63-1.4-8.24c-0.93-2.6-2.28-4.9-4.05-6.87
		c-1.77-1.98-3.93-3.55-6.47-4.71c-2.54-1.16-5.39-1.75-8.56-1.75c-3.17,0-6.02,0.58-8.56,1.75c-2.54,1.16-4.7,2.73-6.47,4.71
		c-1.77,1.98-3.12,4.27-4.05,6.87c-0.93,2.61-1.4,5.35-1.4,8.24c0,2.89,0.47,5.63,1.4,8.24c0.93,2.61,2.28,4.89,4.05,6.84
		c1.77,1.95,3.93,3.51,6.47,4.68c2.54,1.16,5.39,1.74,8.56,1.74c3.17,0,6.02-0.58,8.56-1.74c2.54-1.16,4.69-2.72,6.47-4.68
		c1.77-1.95,3.12-4.23,4.05-6.84C551.04,164.49,551.51,161.74,551.51,158.86z"/>
	<path class="st0" d="M570.8,134.08h16.43c3.08,0,6.16,0.51,9.26,1.54c3.1,1.03,5.89,2.58,8.39,4.65s4.51,4.66,6.05,7.76
		c1.54,3.1,2.31,6.7,2.31,10.8c0,4.15-0.77,7.76-2.31,10.83c-1.54,3.08-3.55,5.65-6.05,7.72c-2.49,2.07-5.29,3.62-8.39,4.65
		c-3.1,1.02-6.19,1.54-9.26,1.54H570.8V134.08z M575.84,179.09h10c3.73,0,6.98-0.58,9.75-1.75c2.77-1.16,5.07-2.69,6.89-4.58
		c1.82-1.89,3.18-4.04,4.09-6.47c0.91-2.42,1.36-4.92,1.36-7.48c0-2.56-0.45-5.06-1.36-7.48c-0.91-2.42-2.27-4.58-4.09-6.47
		s-4.11-3.41-6.89-4.58c-2.77-1.16-6.02-1.75-9.75-1.75h-10V179.09z"/>
	<path class="st0" d="M646.57,183.57h-5.52l21.39-49.49h4.89l21.25,49.49h-5.59l-5.45-13h-25.58L646.57,183.57z M653.85,165.95
		h21.81l-10.9-26.28L653.85,165.95z"/>
	<path class="st0" d="M723.33,142.05c-1.07-1.49-2.45-2.69-4.12-3.6c-1.68-0.91-3.71-1.36-6.08-1.36c-1.21,0-2.45,0.19-3.7,0.56
		c-1.26,0.37-2.4,0.94-3.42,1.71c-1.03,0.77-1.85,1.74-2.48,2.9c-0.63,1.17-0.94,2.54-0.94,4.12c0,1.58,0.3,2.89,0.91,3.91
		c0.6,1.02,1.41,1.9,2.4,2.62c1,0.72,2.14,1.32,3.42,1.78c1.28,0.47,2.61,0.93,4.01,1.4c1.72,0.56,3.45,1.17,5.19,1.82
		c1.74,0.65,3.31,1.5,4.71,2.55c1.39,1.05,2.53,2.38,3.42,3.98c0.88,1.61,1.32,3.65,1.32,6.12c0,2.47-0.47,4.6-1.41,6.4
		c-0.94,1.79-2.17,3.27-3.67,4.44c-1.5,1.17-3.22,2.03-5.16,2.59c-1.93,0.56-3.88,0.84-5.84,0.84c-1.49,0-2.98-0.15-4.47-0.45
		c-1.49-0.3-2.91-0.76-4.26-1.36c-1.35-0.61-2.61-1.37-3.77-2.31c-1.17-0.93-2.19-2-3.08-3.22l4.33-3.22
		c1.07,1.77,2.58,3.25,4.51,4.44c1.93,1.19,4.2,1.78,6.82,1.78c1.26,0,2.54-0.2,3.84-0.59c1.3-0.4,2.48-1,3.53-1.82
		c1.05-0.82,1.91-1.82,2.59-3.01c0.67-1.19,1.01-2.57,1.01-4.16c0-1.72-0.34-3.16-1.01-4.3c-0.68-1.14-1.57-2.1-2.69-2.87
		c-1.12-0.77-2.4-1.41-3.84-1.92c-1.45-0.51-2.96-1.02-4.54-1.54c-1.63-0.51-3.24-1.1-4.82-1.75c-1.58-0.65-3.01-1.5-4.26-2.55
		c-1.26-1.05-2.27-2.34-3.04-3.88c-0.77-1.54-1.15-3.42-1.15-5.66c0-2.38,0.48-4.43,1.43-6.15c0.95-1.72,2.2-3.15,3.74-4.26
		c1.54-1.12,3.24-1.93,5.1-2.45c1.86-0.51,3.7-0.77,5.52-0.77c3.35,0,6.22,0.59,8.6,1.78c2.38,1.19,4.17,2.6,5.38,4.23
		L723.33,142.05z"/>
	<path class="st0" d="M766.24,142.05c-1.07-1.49-2.45-2.69-4.12-3.6c-1.68-0.91-3.7-1.36-6.08-1.36c-1.21,0-2.45,0.19-3.7,0.56
		c-1.26,0.37-2.4,0.94-3.42,1.71c-1.03,0.77-1.85,1.74-2.48,2.9c-0.63,1.17-0.94,2.54-0.94,4.12c0,1.58,0.3,2.89,0.91,3.91
		c0.6,1.02,1.41,1.9,2.41,2.62c1,0.72,2.14,1.32,3.42,1.78c1.28,0.47,2.61,0.93,4.01,1.4c1.72,0.56,3.45,1.17,5.19,1.82
		c1.74,0.65,3.31,1.5,4.71,2.55c1.39,1.05,2.53,2.38,3.42,3.98c0.88,1.61,1.32,3.65,1.32,6.12c0,2.47-0.47,4.6-1.41,6.4
		c-0.94,1.79-2.17,3.27-3.67,4.44c-1.5,1.17-3.22,2.03-5.16,2.59c-1.93,0.56-3.88,0.84-5.84,0.84c-1.49,0-2.98-0.15-4.47-0.45
		c-1.49-0.3-2.91-0.76-4.26-1.36c-1.35-0.61-2.61-1.37-3.77-2.31c-1.17-0.93-2.19-2-3.08-3.22l4.33-3.22
		c1.07,1.77,2.58,3.25,4.51,4.44c1.93,1.19,4.2,1.78,6.82,1.78c1.26,0,2.54-0.2,3.84-0.59c1.3-0.4,2.48-1,3.53-1.82
		c1.05-0.82,1.91-1.82,2.59-3.01c0.67-1.19,1.01-2.57,1.01-4.16c0-1.72-0.34-3.16-1.01-4.3c-0.68-1.14-1.57-2.1-2.69-2.87
		c-1.12-0.77-2.4-1.41-3.84-1.92c-1.45-0.51-2.96-1.02-4.54-1.54c-1.63-0.51-3.24-1.1-4.82-1.75c-1.58-0.65-3.01-1.5-4.26-2.55
		c-1.26-1.05-2.27-2.34-3.04-3.88c-0.77-1.54-1.15-3.42-1.15-5.66c0-2.38,0.48-4.43,1.43-6.15c0.95-1.72,2.2-3.15,3.74-4.26
		c1.54-1.12,3.24-1.93,5.1-2.45c1.86-0.51,3.7-0.77,5.52-0.77c3.35,0,6.22,0.59,8.6,1.78c2.38,1.19,4.17,2.6,5.38,4.23
		L766.24,142.05z"/>
	<path class="st0" d="M834.12,158.82c0,3.77-0.65,7.25-1.96,10.42c-1.3,3.17-3.11,5.91-5.42,8.21c-2.31,2.31-5.03,4.11-8.18,5.42
		c-3.15,1.3-6.56,1.96-10.24,1.96c-3.68,0-7.1-0.65-10.24-1.96c-3.15-1.3-5.87-3.11-8.18-5.42c-2.31-2.31-4.11-5.04-5.42-8.21
		c-1.3-3.17-1.96-6.64-1.96-10.42c0-3.78,0.65-7.25,1.96-10.42c1.3-3.17,3.11-5.91,5.42-8.21s5.03-4.11,8.18-5.42
		c3.15-1.3,6.56-1.96,10.24-1.96c3.68,0,7.09,0.65,10.24,1.96c3.15,1.3,5.87,3.11,8.18,5.42c2.31,2.31,4.11,5.04,5.42,8.21
		C833.46,151.58,834.12,155.05,834.12,158.82z M828.8,158.86c0-2.88-0.47-5.63-1.4-8.24c-0.93-2.6-2.28-4.9-4.05-6.87
		c-1.77-1.98-3.93-3.55-6.47-4.71c-2.54-1.16-5.39-1.75-8.56-1.75c-3.17,0-6.02,0.58-8.56,1.75c-2.54,1.16-4.7,2.73-6.47,4.71
		c-1.77,1.98-3.12,4.27-4.05,6.87c-0.93,2.61-1.4,5.35-1.4,8.24c0,2.89,0.46,5.63,1.4,8.24c0.93,2.61,2.28,4.89,4.05,6.84
		c1.77,1.95,3.93,3.51,6.47,4.68c2.54,1.16,5.39,1.74,8.56,1.74c3.17,0,6.02-0.58,8.56-1.74c2.54-1.16,4.69-2.72,6.47-4.68
		c1.77-1.95,3.12-4.23,4.05-6.84C828.34,164.49,828.8,161.74,828.8,158.86z"/>
	<path class="st0" d="M889.76,175.53c-0.84,1.26-1.85,2.45-3.04,3.57c-1.19,1.12-2.56,2.11-4.12,2.96s-3.28,1.53-5.17,2.02
		c-1.89,0.5-3.95,0.74-6.19,0.74c-3.73,0-7.18-0.65-10.35-1.96c-3.17-1.3-5.9-3.11-8.18-5.42c-2.28-2.31-4.07-5.04-5.35-8.21
		c-1.28-3.17-1.92-6.64-1.92-10.42c0-3.78,0.65-7.25,1.96-10.42c1.3-3.17,3.11-5.91,5.42-8.21s5.03-4.11,8.18-5.42
		c3.15-1.3,6.56-1.96,10.24-1.96c1.82,0,3.6,0.19,5.35,0.57c1.75,0.38,3.39,0.91,4.93,1.6c1.54,0.69,2.94,1.51,4.19,2.47
		c1.26,0.96,2.31,2.05,3.15,3.26l-4.19,3.08c-0.51-0.79-1.2-1.58-2.06-2.38c-0.86-0.79-1.88-1.49-3.04-2.1
		c-1.17-0.61-2.44-1.09-3.81-1.47c-1.38-0.37-2.86-0.56-4.44-0.56c-3.22,0-6.09,0.58-8.63,1.74c-2.54,1.16-4.7,2.73-6.47,4.7
		c-1.77,1.97-3.12,4.26-4.05,6.86c-0.93,2.6-1.4,5.34-1.4,8.22c0,2.88,0.48,5.62,1.43,8.22c0.95,2.6,2.32,4.89,4.09,6.86
		c1.77,1.97,3.93,3.54,6.47,4.7c2.54,1.16,5.39,1.74,8.56,1.74c2.84,0,5.55-0.58,8.11-1.75c2.56-1.16,4.71-3.03,6.43-5.59
		L889.76,175.53z"/>
	<path class="st0" d="M906.95,183.57h-5.03v-49.49h5.03V183.57z"/>
	<path class="st0" d="M923.24,183.57h-5.52l21.39-49.49H944l21.25,49.49h-5.59l-5.45-13h-25.58L923.24,183.57z M930.51,165.95h21.81
		l-10.9-26.28L930.51,165.95z"/>
	<path class="st0" d="M987.69,183.57h-5.03v-45.02h-16.57v-4.47h38.17v4.47h-16.57V183.57z"/>
	<path class="st0" d="M1020.19,183.57h-5.03v-49.49h5.03V183.57z"/>
	<path class="st0" d="M1085.76,158.82c0,3.77-0.65,7.25-1.96,10.42s-3.11,5.91-5.42,8.21c-2.31,2.31-5.03,4.11-8.18,5.42
		c-3.15,1.3-6.56,1.96-10.24,1.96c-3.68,0-7.1-0.65-10.24-1.96c-3.15-1.3-5.87-3.11-8.18-5.42c-2.31-2.31-4.11-5.04-5.42-8.21
		c-1.3-3.17-1.96-6.64-1.96-10.42c0-3.78,0.65-7.25,1.96-10.42c1.3-3.17,3.11-5.91,5.42-8.21c2.31-2.31,5.03-4.11,8.18-5.42
		c3.15-1.3,6.56-1.96,10.24-1.96c3.68,0,7.09,0.65,10.24,1.96c3.15,1.3,5.87,3.11,8.18,5.42c2.31,2.31,4.11,5.04,5.42,8.21
		C1085.1,151.58,1085.76,155.05,1085.76,158.82z M1080.44,158.86c0-2.88-0.47-5.63-1.4-8.24c-0.93-2.6-2.28-4.9-4.05-6.87
		c-1.77-1.98-3.93-3.55-6.47-4.71c-2.54-1.16-5.39-1.75-8.56-1.75c-3.17,0-6.02,0.58-8.56,1.75c-2.54,1.16-4.7,2.73-6.47,4.71
		c-1.77,1.98-3.12,4.27-4.05,6.87c-0.93,2.61-1.4,5.35-1.4,8.24c0,2.89,0.46,5.63,1.4,8.24c0.93,2.61,2.28,4.89,4.05,6.84
		c1.77,1.95,3.93,3.51,6.47,4.68c2.54,1.16,5.39,1.74,8.56,1.74c3.17,0,6.02-0.58,8.56-1.74c2.54-1.16,4.69-2.72,6.47-4.68
		c1.77-1.95,3.12-4.23,4.05-6.84C1079.98,164.49,1080.44,161.74,1080.44,158.86z"/>
	<path class="st0" d="M1134.83,176.23h0.14v-42.15h5.03v49.49h-6.29l-28.8-42.57h-0.14v42.57h-5.03v-49.49h6.29L1134.83,176.23z"/>
</g>
</svg>
